<?xml version="1.0" encoding="utf-8"?>
<svg version="1.1" id="skylogo_1" xmlns="http://www.w3.org/2000/svg" xmlns:xlink="http://www.w3.org/1999/xlink" x="0px" y="0px"
	 viewBox="0 0 1080 1080" style="enable-background:new 0 0 1080 1080;" xml:space="preserve" width="100%" height="100%" preserveAspectRatio="none">
<style type="text/css">
	.st0{fill:#1C1C1C;}
	.st1{fill:none;stroke:#499D9B;stroke-miterlimit:10;}
	.st2{fill:none;stroke:#FFFFFF;stroke-width:1.05;stroke-miterlimit:10;}
	.st3{fill:#FFFFFF;}
	.st4{fill:none;}
	.st5{fill:url(#SVGID_1_);}
	.st6{fill:#B0AFB0;}
	.st7{font-family:'Gotham-Book';}
	.st8{font-size:11px;}
	.st9{fill:#8CE299;}
	.st10{fill:#499D9B;}
	.st11{fill:#F21D7A;}
	.st12{fill:none;stroke:#FFFFFF;stroke-miterlimit:10;}
	.st13{fill:url(#SVGID_00000164501353510477986410000014891773793109933448_);}
	.st14{fill:url(#SVGID_00000129203008828219436820000009496414285554404798_);}
	.st15{fill:url(#SVGID_00000093146220712409362080000007871790971854547886_);}
	.st16{fill:url(#SVGID_00000175301506909699362020000005601143043655191450_);}
	.st17{fill:url(#SVGID_00000119805664907696283790000014107403905139641475_);}
	.st18{fill:url(#SVGID_00000047041757336371494770000017077091788717132951_);}
	.st19{fill:url(#SVGID_00000151531946316524849420000003790619077369365129_);}
	.st20{fill:url(#SVGID_00000152263600310122147420000011958959488641297341_);}
	.st21{fill:url(#SVGID_00000119811617439687356150000005755974901403026817_);}
	.st22{fill:url(#SVGID_00000031208949825230885630000013233291543034591633_);}
</style>
<g>
	<path class="st3" d="M469.84,434.77l1.14-1.35c1.7,1.54,3.34,2.31,5.6,2.31c2.19,0,3.64-1.17,3.64-2.78v-0.05
		c0-1.52-0.82-2.38-4.25-3.1c-3.76-0.82-5.49-2.03-5.49-4.72v-0.05c0-2.57,2.26-4.46,5.37-4.46c2.38,0,4.08,0.68,5.74,2.01
		l-1.07,1.42c-1.52-1.24-3.03-1.77-4.72-1.77c-2.12,0-3.48,1.17-3.48,2.64v0.05c0,1.54,0.84,2.4,4.44,3.17
		c3.64,0.79,5.32,2.12,5.32,4.62v0.05c0,2.8-2.33,4.62-5.58,4.62C473.93,437.39,471.81,436.52,469.84,434.77z"/>
	<path class="st3" d="M487.61,420.82h1.84v9.76l9.38-9.76h2.38l-7,7.14l7.31,9.2h-2.31l-6.28-7.91l-3.48,3.52v4.39h-1.84V420.82z"
		/>
	<path class="st3" d="M510.4,430.69l-6.79-9.87h2.24l5.51,8.17l5.56-8.17h2.15l-6.79,9.85v6.49h-1.87V430.69z"/>
	<path class="st3" d="M522.89,420.82h4.53v12.37h7.91v3.97h-12.44V420.82z"/>
	<path class="st3" d="M579.9,420.82h4.23l6.72,8.64v-8.64h4.48v16.34h-3.97l-6.98-8.96v8.96h-4.48V420.82z"/>
	<path class="st3" d="M597.83,429.03v-0.05c0-4.76,3.67-8.5,8.61-8.5c3.34,0,5.49,1.4,6.93,3.41l-3.41,2.64
		c-0.93-1.17-2.01-1.91-3.57-1.91c-2.29,0-3.9,1.94-3.9,4.32v0.05c0,2.45,1.61,4.36,3.9,4.36c1.7,0,2.71-0.79,3.69-1.98l3.41,2.43
		c-1.54,2.12-3.62,3.69-7.24,3.69C601.59,437.48,597.83,433.91,597.83,429.03z"/>
	<path class="st3" d="M616,420.82h4.53v6.12h5.81v-6.12h4.53v16.34h-4.53v-6.21h-5.81v6.21H616V420.82z"/>
	<path class="st4" d="M564.27,422.42c0,0-0.02,0.01-0.07,0.02C564.22,422.44,564.25,422.43,564.27,422.42z"/>
	<path class="st3" d="M546.17,429.14l1.22-3.07l0.79,2.01c1.16-0.57,2.45-1.13,3.85-1.66l-2.42-5.72h-4.36l-5.54,13.1v0
		C539.71,433.8,541.87,431.55,546.17,429.14z"/>
	<linearGradient id="SVGID_1_" gradientUnits="userSpaceOnUse" x1="560.2715" y1="431.4454" x2="551.9879" y2="426.0659">
		<stop  offset="3.162443e-07" style="stop-color:#329D9C"/>
		<stop  offset="1" style="stop-color:#7BE495"/>
	</linearGradient>
	<path class="st5" d="M564.27,422.42c-0.02,0.01-0.05,0.01-0.07,0.02c-0.65,0.19-6.05,2.77-11.18,6.33
		c-2.23,1.55-4.53,3.29-6.34,5.46h3.84l1.19,2.92h4.86l-2.02-4.77C557.07,426.88,564.27,422.42,564.27,422.42z"/>
	<path class="st3" d="M570.28,420.82v9.2c0,2.29-1.19,3.36-3.01,3.36c-1.82,0-3.01-1.12-3.01-3.48v-4.41
		c-0.16,0.06-2.98,1.9-4.6,3.82v0.68c0,5.11,2.92,7.47,7.56,7.47s7.66-2.31,7.66-7.59v-9.06H570.28z"/>
</g>
</svg>