<svg id="Layer_1" data-name="Layer 1" xmlns="http://www.w3.org/2000/svg" viewBox="0 0 20.43 22.12">
<defs><style>.homecls-1{fill:#fff;}</style>
</defs>
<path class="homecls-1" d="M550,550.71h-6.53a.6.6,0,0,1-.6-.6V546.2a2.46,2.46,0,1,0-4.92,0v3.91a.59.59,0,0,1-.59.6h-6.59a.6.6,0,0,1-.6-.6V539.65a.55.55,0,0,1,.16-.4L540,528.79a.62.62,0,0,1,.45-.2.62.62,0,0,1,.44.21l9.62,11a.59.59,0,0,1,.15.4v10A.6.6,0,0,1,550,550.71Zm-5.93-1.19h5.33v-9.15l-9-10.28-9,9.8v9.63h5.4V546.2a3.66,3.66,0,0,1,7.31,0Z" transform="translate(-530.19 -528.59)"/>
</svg>