<svg id="Layer_1" data-name="Layer 1" xmlns="http://www.w3.org/2000/svg" xmlns:xlink="http://www.w3.org/1999/xlink" viewBox="0 0 20.43188 22.11786">
<defs><style>.clshome-1{fill:#fff;}.clshome-2{fill:url(#HomeHomeNew_Gradient_Swatch_2);}</style>
<linearGradient id="HomeHomeNew_Gradient_Swatch_2" x1="728.16272" y1="587.38301" x2="708.85128" y2="574.84201" gradientUnits="userSpaceOnUse">
<stop offset="0" stop-color="#329d9c"/><stop offset="1" stop-color="#7be495"/>
</linearGradient>
</defs>
<path class="clshome-1" d="M727.16256,588.42313h-6.53179a.59765.59765,0,0,1-.59779-.5978v-3.91386a2.4597,2.4597,0,1,0-4.9194,0v3.91386a.59763.59763,0,0,1-.59779.5978h-6.58956a.59763.59763,0,0,1-.59779-.5978V577.3642a.59719.59719,0,0,1,.15762-.40453l9.61817-10.46114a.613.613,0,0,1,.44717-.19323.597.597,0,0,1,.44191.20345l9.61816,10.95472a.59477.59477,0,0,1,.14885.39432v9.96754A.59763.59763,0,0,1,727.16256,588.42313Z" transform="translate(-707.32844 -566.30527)"/>
<path class="clshome-2" d="M727.16256,588.42313h-6.53179a.59765.59765,0,0,1-.59779-.5978v-3.91386a2.4597,2.4597,0,1,0-4.9194,0v3.91386a.59763.59763,0,0,1-.59779.5978h-6.58956a.59763.59763,0,0,1-.59779-.5978V577.3642a.59719.59719,0,0,1,.15762-.40453l9.61817-10.46114a.613.613,0,0,1,.44717-.19323.597.597,0,0,1,.44191.20345l9.61816,10.95472a.59477.59477,0,0,1,.14885.39432v9.96754A.59763.59763,0,0,1,727.16256,588.42313Z" transform="translate(-707.32844 -566.30527)"/>
</svg>