<svg id="Layer_1" data-name="Layer 1" xmlns="http://www.w3.org/2000/svg" viewBox="0 0 24.69952 24.69946">
<defs>
<style>.idocls-1{fill:#fff;}</style>
</defs>
<path class="idocls-1" d="M540.4046,528.30347a11.34973,11.34973,0,1,1-11.34973,11.34973,11.34975,11.34975,0,0,1,11.34973-11.34973m0-1a12.34973,12.34973,0,1,0,12.34979,12.34973,12.36376,12.36376,0,0,0-12.34979-12.34973Z" transform="translate(-528.05487 -527.30347)"/>
<path class="idocls-1" d="M540.4046,535.31537l1.40949,2.85583,3.15161.45795-2.28052,2.223.53833,3.13892-2.81891-1.482-2.81891,1.482.53839-3.13892-2.28051-2.223,3.15161-.45795,1.40942-2.85583m0-2.25952-.89673,1.817-1.17675,2.3844-2.63135.38233-2.00519.29138,1.451,1.4143,1.904,1.856-.44952,2.62073-.34253,1.99707,1.79346-.94287,2.35357-1.23737,2.35358,1.23737,1.79346.94287-.34253-1.997-.44947-2.62079,1.90406-1.856,1.451-1.4143-2.00519-.29138-2.63135-.38233-1.17682-2.3844-.89673-1.817Z" transform="translate(-528.05487 -527.30347)"/>
</svg>