<svg id="Layer_1" data-name="Layer 1" xmlns="http://www.w3.org/2000/svg" viewBox="0 0 23.81881 23.81867">
<defs><style>.launchcls-1{fill:#fff;}.launchcls-2{fill:none;stroke:#fff;stroke-miterlimit:10;}</style></defs>
<rect class="launchcls-1" x="758.10174" y="584.32951" width="6.33693" height="0.9737" transform="translate(-946.523 143.28658) rotate(-45)"/><rect class="launchcls-1" x="757.91736" y="581.16473" width="4.27124" height="0.9737" transform="translate(-944.64168 141.49893) rotate(-45)"/><rect class="launchcls-1" x="762.29936" y="585.54673" width="4.27124" height="0.9737" transform="translate(-946.45677 145.88093) rotate(-45)"/>
<path class="launchcls-2" d="M779.28508,566.80148h-.48694a18.54368,18.54368,0,0,0-12.2926,4.382h-3.97632l-5.35583,5.35578h5.64392a11.37624,11.37624,0,0,0-.56946,2.37359l-.02979.23676,4.71936,4.71918.23682-.03a11.3942,11.3942,0,0,0,2.373-.57221v5.64649l5.35583-5.35578v-3.98284a18.53745,18.53745,0,0,0,4.382-12.28608Zm-6.573,9.25085a2.67789,2.67789,0,1,1,2.67786-2.67786A2.68106,2.68106,0,0,1,772.71208,576.05233Z" transform="translate(-755.96627 -566.30148)"/></svg>