<svg id="Layer_1" data-name="Layer 1" xmlns="http://www.w3.org/2000/svg" xmlns:xlink="http://www.w3.org/1999/xlink" viewBox="0 0 22.11169 22.11157">
<defs>
<style>.launchcls-1{fill:#fff;}.cls-2{fill:url(#launchNew_Gradient_Swatch_2);}.cls-3{fill:url(#launchNew_Gradient_Swatch_2-2);}.cls-4{fill:url(#launchNew_Gradient_Swatch_2-3);}.cls-5{fill:url(#launchNew_Gradient_Swatch_2-4);}
</style>
<linearGradient id="launchNew_Gradient_Swatch_2" x1="677.30748" y1="595.6018" x2="661.63128" y2="585.42156" gradientTransform="translate(617.46141 -292.97178) rotate(45)" gradientUnits="userSpaceOnUse"><stop offset="0" stop-color="#329d9c"/><stop offset="1" stop-color="#7be495"/></linearGradient><linearGradient id="launchNew_Gradient_Swatch_2-2" x1="677.30748" y1="595.6018" x2="661.63128" y2="585.42156" gradientTransform="translate(614.86705 -293.03801) rotate(45)" xlink:href="#launchNew_Gradient_Swatch_2"/><linearGradient id="launchNew_Gradient_Swatch_2-3" x1="677.30748" y1="595.6018" x2="661.63128" y2="585.42156" gradientTransform="translate(619.24905 -294.85309) rotate(45)" xlink:href="#launchNew_Gradient_Swatch_2"/><linearGradient id="launchNew_Gradient_Swatch_2-4" x1="677.30748" y1="595.6018" x2="661.63128" y2="585.42156" gradientTransform="matrix(1, 0, 0, 1, 0, 0)" xlink:href="#launchNew_Gradient_Swatch_2"/></defs><rect class="launchcls-1" x="659.21046" y="598.36913" width="6.33693" height="0.9737" transform="translate(-887.73094 62.93238) rotate(-45)"/><rect class="launchcls-1" x="659.02609" y="595.20435" width="4.27124" height="0.9737" transform="translate(-885.84962 61.14473) rotate(-45)"/><rect class="launchcls-1" x="663.40809" y="599.58635" width="4.27124" height="0.9737" transform="translate(-887.6647 65.52673) rotate(-45)"/><path class="launchcls-1" d="M680.3938,580.8411h-.48693a18.5437,18.5437,0,0,0-12.29261,4.38195h-3.97632l-5.35583,5.35578H663.926a11.37687,11.37687,0,0,0-.56946,2.37359l-.02978.23676,4.71936,4.71918.23681-.03a11.3942,11.3942,0,0,0,2.37305-.57221v5.64649l5.35584-5.35578v-3.98284a18.53749,18.53749,0,0,0,4.382-12.28608Zm-6.573,9.25085a2.67789,2.67789,0,1,1,2.67785-2.67786A2.68106,2.68106,0,0,1,673.82081,590.092Z" transform="translate(-658.28211 -580.8411)"/><rect class="cls-2" x="659.21046" y="598.36913" width="6.33693" height="0.9737" transform="translate(-887.73094 62.93238) rotate(-45)"/><rect class="cls-3" x="659.02609" y="595.20435" width="4.27124" height="0.9737" transform="translate(-885.84962 61.14473) rotate(-45)"/><rect class="cls-4" x="663.40809" y="599.58635" width="4.27124" height="0.9737" transform="translate(-887.6647 65.52673) rotate(-45)"/><path class="cls-5" d="M680.3938,580.8411h-.48693a18.5437,18.5437,0,0,0-12.29261,4.38195h-3.97632l-5.35583,5.35578H663.926a11.37687,11.37687,0,0,0-.56946,2.37359l-.02978.23676,4.71936,4.71918.23681-.03a11.3942,11.3942,0,0,0,2.37305-.57221v5.64649l5.35584-5.35578v-3.98284a18.53749,18.53749,0,0,0,4.382-12.28608Zm-6.573,9.25085a2.67789,2.67789,0,1,1,2.67785-2.67786A2.68106,2.68106,0,0,1,673.82081,590.092Z" transform="translate(-658.28211 -580.8411)"/>
</svg>