<svg id="Layer_1" data-name="Layer 1" xmlns="http://www.w3.org/2000/svg" xmlns:xlink="http://www.w3.org/1999/xlink" viewBox="0 0 22.11783 22.06763">
<defs><style>.morecls-1{fill:url(#moreNew_Gradient_Swatch_2);}.morecls-2{fill:url(#moreNew_Gradient_Swatch_2-2);}.morecls-3{fill:url(#moreNew_Gradient_Swatch_2-3);}.morecls-4{fill:url(#moreNew_Gradient_Swatch_2-4);}</style>
<linearGradient id="moreNew_Gradient_Swatch_2" x1="772.4743" y1="535.89422" x2="756.79066" y2="525.70915" gradientUnits="userSpaceOnUse"><stop offset="0" stop-color="#329d9c"/><stop offset="1" stop-color="#7be495"/></linearGradient><linearGradient id="moreNew_Gradient_Swatch_2-2" x1="767.42586" y1="541.49781" x2="755.9115" y2="534.02029" xlink:href="#moreNew_Gradient_Swatch_2"/><linearGradient id="moreNew_Gradient_Swatch_2-3" x1="772.49195" y1="549.82039" x2="756.773" y2="539.61239" xlink:href="#moreNew_Gradient_Swatch_2"/><linearGradient id="moreNew_Gradient_Swatch_2-4" x1="767.42586" y1="555.41251" x2="755.9115" y2="547.935" xlink:href="#moreNew_Gradient_Swatch_2"/></defs><path class="morecls-1" d="M775.0685,531.39946h-20.872a.59778.59778,0,1,1,0-1.19555h20.872a.59778.59778,0,1,1,0,1.19555Z" transform="translate(-753.57356 -530.20391)"/>
<path class="morecls-2" d="M769.14091,538.35683H754.19646a.59778.59778,0,1,1,0-1.19556h14.94445a.59778.59778,0,1,1,0,1.19556Z" transform="translate(-753.57356 -530.20391)"/><path class="morecls-3" d="M775.0936,545.31417H754.17135a.59778.59778,0,1,1,0-1.19556H775.0936a.59778.59778,0,1,1,0,1.19556Z" transform="translate(-753.57356 -530.20391)"/><path class="morecls-4" d="M769.14091,552.27153H754.19646a.59778.59778,0,1,1,0-1.19555h14.94445a.59778.59778,0,1,1,0,1.19555Z" transform="translate(-753.57356 -530.20391)"/></svg>