<svg id="Layer_1" data-name="Layer 1" xmlns="http://www.w3.org/2000/svg" viewBox="0 0 22.11783 22.06763"><defs>
<style>.morecls-1{fill:#fff;}</style></defs>
<path class="morecls-1" d="M775.0685,531.39946h-20.872a.59778.59778,0,1,1,0-1.19555h20.872a.59778.59778,0,1,1,0,1.19555Z" transform="translate(-753.57356 -530.20391)"/><path class="morecls-1" d="M769.14091,538.35683H754.19646a.59778.59778,0,1,1,0-1.19556h14.94445a.59778.59778,0,1,1,0,1.19556Z" transform="translate(-753.57356 -530.20391)"/><path class="morecls-1" d="M775.0936,545.31417H754.17135a.59778.59778,0,1,1,0-1.19556H775.0936a.59778.59778,0,1,1,0,1.19556Z" transform="translate(-753.57356 -530.20391)"/><path class="morecls-1" d="M769.14091,552.27153H754.19646a.59778.59778,0,1,1,0-1.19555h14.94445a.59778.59778,0,1,1,0,1.19555Z" transform="translate(-753.57356 -530.20391)"/></svg>