<svg id="Layer_1" data-name="Layer 1" xmlns="http://www.w3.org/2000/svg" viewBox="0 0 22.12 22.12"><defs><style>.cls-1{fill:#fff;}</style></defs><path class="cls-1" d="M636.88,656.6H620.74a3,3,0,0,1-3-3V641.36a3,3,0,0,1,3-3h16.14a3,3,0,0,1,3,3v12.25A3,3,0,0,1,636.88,656.6Zm-16.14-17a1.81,1.81,0,0,0-1.8,1.8v12.25a1.8,1.8,0,0,0,1.8,1.79h16.14a1.79,1.79,0,0,0,1.79-1.79V641.36a1.8,1.8,0,0,0-1.79-1.8Z" transform="translate(-617.75 -634.48)"/><path class="cls-1" d="M632.69,639.56h-7.77a.6.6,0,0,1-.6-.6,4.49,4.49,0,0,1,9,0A.6.6,0,0,1,632.69,639.56Zm-7.12-1.19H632a3.29,3.29,0,0,0-6.47,0Z" transform="translate(-617.75 -634.48)"/><path class="cls-1" d="M624.92,642a.9.9,0,1,0,.9.9A.9.9,0,0,0,624.92,642Z" transform="translate(-617.75 -634.48)"/><path class="cls-1" d="M632.69,642a.9.9,0,1,0,0,1.8.9.9,0,1,0,0-1.8Z" transform="translate(-617.75 -634.48)"/></svg>