<?xml version="1.0" encoding="UTF-8" standalone="no"?>
<svg
   xmlnsdc="http://purl.org/dc/elements/1.1/"
   xmlnscc="http://creativecommons.org/ns#"
   xmlnsrdf="http://www.w3.org/1999/02/22-rdf-syntax-ns#"
   xmlnssvg="http://www.w3.org/2000/svg"
   xmlns="http://www.w3.org/2000/svg"
   viewBox="0 0 51.146667 51.146667"
   height="51.146667"
   width="51.146667"
   xmlSpace="preserve"
   id="svg2"
   version="1.1"><metadata
     id="metadata8"><rdfRDF><ccWork
         rdfabout=""><dcFormat>image/svg+xml</dcFormat><dcType
           rdfresource="http://purl.org/dc/dcmitype/StillImage" /></ccWork></rdfRDF></metadata><defs
     id="defs6"><clipPath
       id="clipPath22"
       clipPathUnits="userSpaceOnUse"><path
         id="path20"
         d="M 213.773,49.9805 V 179.363 h 43.434 l 6.508,50.438 h -49.942 v 32.191 c 0,14.598 4.055,24.547 24.993,24.547 l 26.703,0.02 v 45.097 c -4.617,0.614 -20.465,1.992 -38.906,1.992 -38.504,0 -64.864,-23.503 -64.864,-66.66 v -37.187 h -43.543 v -50.438 h 43.543 V 49.9805 Z" /></clipPath><linearGradient
       id="linearGradient28"
       spreadMethod="pad"
       gradientTransform="matrix(147.309,0,0,-147.309,118.158,191.813)"
       gradientUnits="userSpaceOnUse"
       y2="0"
       x2="1"
       y1="0"
       x1="0"><stop
         id="stop24"
         offset="0"
         style="stop-opacity:1;stop-color:#d08273" /><stop
         id="stop26"
         offset="1"
         style="stop-opacity:1;stop-color:#8375c2" /></linearGradient></defs><g
     transform="matrix(1.3333333,0,0,-1.3333333,0,51.146667)"
     id="g10"><g
       transform="scale(0.1)"
       id="g12"><path
         id="path14"
         style="fill:#161617;fill-opacity:1;fill-rule:nonzero;stroke:none"
         d="M 383.625,191.813 C 383.625,85.8789 297.75,0 191.813,0 85.8789,0 0,85.8789 0,191.813 0,297.75 85.8789,383.625 191.813,383.625 c 105.937,0 191.812,-85.875 191.812,-191.812" /><g
         id="g16"><g
           clip-path="url(#clipPath22)"
           id="g18"><path
             id="path30"
             style="fill:url(#linearGradient28);fill-opacity:1;fill-rule:nonzero;stroke:none"
             d="M 213.773,49.9805 V 179.363 h 43.434 l 6.508,50.438 h -49.942 v 32.191 c 0,14.598 4.055,24.547 24.993,24.547 l 26.703,0.02 v 45.097 c -4.617,0.614 -20.465,1.992 -38.906,1.992 -38.504,0 -64.864,-23.503 -64.864,-66.66 v -37.187 h -43.543 v -50.438 h 43.543 V 49.9805 h 52.074" /></g></g></g></g></svg>