<?xml version="1.0" encoding="UTF-8" standalone="no"?>
<svg
   xmlnsdc="http://purl.org/dc/elements/1.1/"
   xmlnscc="http://creativecommons.org/ns#"
   xmlnsrdf="http://www.w3.org/1999/02/22-rdf-syntax-ns#"
   xmlnssvg="http://www.w3.org/2000/svg"
   xmlns="http://www.w3.org/2000/svg"
   viewBox="0 0 51.279999 51.279999"
   height="51.279999"
   width="51.279999"
   xmlSpace="preserve"
   id="svg2"
   version="1.1"><metadata
     id="metadata8"><rdfRDF><ccWork
         rdfabout=""><dcFormat>image/svg+xml</dcFormat><dcType
           rdfresource="http://purl.org/dc/dcmitype/StillImage" /></ccWork></rdfRDF></metadata><defs
     id="defs6"><clipPath
       id="clipPath22"
       clipPathUnits="userSpaceOnUse"><path
         id="path20"
         d="m 251.969,265.023 c -7.301,0 -13.219,-5.918 -13.219,-13.214 0,-7.301 5.918,-13.219 13.219,-13.219 7.301,0 13.219,5.918 13.219,13.219 0,7.296 -5.918,13.214 -13.219,13.214 z" /></clipPath><linearGradient
       id="linearGradient28"
       spreadMethod="pad"
       gradientTransform="matrix(26.4346,0,0,-26.4346,238.751,251.806)"
       gradientUnits="userSpaceOnUse"
       y2="0"
       x2="1"
       y1="0"
       x1="0"><stop
         id="stop24"
         offset="0"
         style="stop-opacity:1;stop-color:#d08273" /><stop
         id="stop26"
         offset="1"
         style="stop-opacity:1;stop-color:#8375c2" /></linearGradient><clipPath
       id="clipPath38"
       clipPathUnits="userSpaceOnUse"><path
         id="path36"
         d="m 193.207,156.988 c -19.609,0 -35.566,15.953 -35.566,35.563 0,19.613 15.957,35.566 35.566,35.566 19.609,0 35.563,-15.953 35.563,-35.566 0,-19.61 -15.954,-35.563 -35.563,-35.563 z m 0,91.086 c -30.613,0 -55.519,-24.906 -55.519,-55.523 0,-30.613 24.906,-55.52 55.519,-55.52 30.613,0 55.523,24.907 55.523,55.52 0,30.617 -24.91,55.523 -55.523,55.523 z" /></clipPath><linearGradient
       id="linearGradient44"
       spreadMethod="pad"
       gradientTransform="matrix(111.043,0,0,-111.043,137.686,192.553)"
       gradientUnits="userSpaceOnUse"
       y2="0"
       x2="1"
       y1="0"
       x1="0"><stop
         id="stop40"
         offset="0"
         style="stop-opacity:1;stop-color:#d08273" /><stop
         id="stop42"
         offset="1"
         style="stop-opacity:1;stop-color:#8375c2" /></linearGradient><clipPath
       id="clipPath54"
       clipPathUnits="userSpaceOnUse"><path
         id="path52"
         d="m 147.273,284.066 c -25.644,0 -46.507,-20.859 -46.507,-46.507 v -90.012 c 0,-25.649 20.863,-46.512 46.507,-46.512 h 90.012 c 25.649,0 46.512,20.863 46.512,46.512 v 90.012 c 0,25.648 -20.863,46.507 -46.512,46.507 z M 237.285,79.8281 h -90.012 c -37.339,0 -67.7183,30.3789 -67.7183,67.7189 v 90.012 c 0,37.343 30.3793,67.718 67.7183,67.718 h 90.012 c 37.34,0 67.723,-30.375 67.723,-67.718 v -90.012 c 0,-37.34 -30.383,-67.7189 -67.723,-67.7189 z" /></clipPath><linearGradient
       id="linearGradient60"
       spreadMethod="pad"
       gradientTransform="matrix(225.451,0,0,-225.451,79.5563,192.552)"
       gradientUnits="userSpaceOnUse"
       y2="0"
       x2="1"
       y1="0"
       x1="0"><stop
         id="stop56"
         offset="0"
         style="stop-opacity:1;stop-color:#d08273" /><stop
         id="stop58"
         offset="1"
         style="stop-opacity:1;stop-color:#8375c2" /></linearGradient></defs><g
     transform="matrix(1.3333333,0,0,-1.3333333,0,51.28)"
     id="g10"><g
       transform="scale(0.1)"
       id="g12"><path
         id="path14"
         style="fill:#161617;fill-opacity:1;fill-rule:nonzero;stroke:none"
         d="M 384.563,192.281 C 384.563,86.0898 298.477,0 192.281,0 86.0859,0 0,86.0898 0,192.281 c 0,106.196 86.0859,192.285 192.281,192.285 106.196,0 192.282,-86.089 192.282,-192.285" /><g
         id="g16"><g
           clip-path="url(#clipPath22)"
           id="g18"><path
             id="path30"
             style="fill:url(#linearGradient28);fill-opacity:1;fill-rule:nonzero;stroke:none"
             d="m 251.969,265.023 c -7.301,0 -13.219,-5.918 -13.219,-13.214 0,-7.301 5.918,-13.219 13.219,-13.219 7.301,0 13.219,5.918 13.219,13.219 0,7.296 -5.918,13.214 -13.219,13.214" /></g></g><g
         id="g32"><g
           clip-path="url(#clipPath38)"
           id="g34"><path
             id="path46"
             style="fill:url(#linearGradient44);fill-opacity:1;fill-rule:nonzero;stroke:none"
             d="m 193.207,156.988 c -19.609,0 -35.566,15.953 -35.566,35.563 0,19.613 15.957,35.566 35.566,35.566 19.609,0 35.563,-15.953 35.563,-35.566 0,-19.61 -15.954,-35.563 -35.563,-35.563 z m 0,91.086 c -30.613,0 -55.519,-24.906 -55.519,-55.523 0,-30.613 24.906,-55.52 55.519,-55.52 30.613,0 55.523,24.907 55.523,55.52 0,30.617 -24.91,55.523 -55.523,55.523" /></g></g><g
         id="g48"><g
           clip-path="url(#clipPath54)"
           id="g50"><path
             id="path62"
             style="fill:url(#linearGradient60);fill-opacity:1;fill-rule:nonzero;stroke:none"
             d="m 147.273,284.066 c -25.644,0 -46.507,-20.859 -46.507,-46.507 v -90.012 c 0,-25.649 20.863,-46.512 46.507,-46.512 h 90.012 c 25.649,0 46.512,20.863 46.512,46.512 v 90.012 c 0,25.648 -20.863,46.507 -46.512,46.507 z M 237.285,79.8281 h -90.012 c -37.339,0 -67.7183,30.3789 -67.7183,67.7189 v 90.012 c 0,37.343 30.3793,67.718 67.7183,67.718 h 90.012 c 37.34,0 67.723,-30.375 67.723,-67.718 v -90.012 c 0,-37.34 -30.383,-67.7189 -67.723,-67.7189" /></g></g></g></g></svg>