<?xml version="1.0" encoding="UTF-8" standalone="no"?>
<svg
   xmlnsdc="http://purl.org/dc/elements/1.1/"
   xmlnscc="http://creativecommons.org/ns#"
   xmlnsrdf="http://www.w3.org/1999/02/22-rdf-syntax-ns#"
   xmlnssvg="http://www.w3.org/2000/svg"
   xmlns="http://www.w3.org/2000/svg"
   viewBox="0 0 51.266666 51.266666"
   height="51.266666"
   width="51.266666"
   xmlSpace="preserve"
   id="svg2"
   version="1.1"><metadata
     id="metadata8"><rdfRDF><ccWork
         rdfabout=""><dcFormat>image/svg+xml</dcFormat><dcType
           rdfresource="http://purl.org/dc/dcmitype/StillImage" /></ccWork></rdfRDF></metadata><defs
     id="defs6"><clipPath
       id="clipPath22"
       clipPathUnits="userSpaceOnUse"><path
         id="path20"
         d="m 89.8281,127.902 c 18.6019,-11.925 40.6949,-18.886 64.4299,-18.886 78.043,0 122.133,65.914 119.476,125.039 8.211,5.922 15.336,13.32 20.973,21.758 -7.543,-3.34 -15.644,-5.602 -24.141,-6.614 8.676,5.192 15.34,13.43 18.477,23.25 -8.121,-4.816 -17.117,-8.316 -26.684,-10.203 -7.671,8.172 -18.593,13.274 -30.687,13.274 -27.129,0 -47.07,-25.321 -40.945,-51.614 -34.934,1.75 -65.907,18.489 -86.633,43.922 -11.012,-18.898 -5.7112,-43.613 13.008,-56.125 -6.891,0.219 -13.383,2.117 -19.0473,5.262 -0.4531,-19.477 13.5003,-37.688 33.7153,-41.75 -5.918,-1.61 -12.399,-1.973 -18.973,-0.715 5.336,-16.707 20.863,-28.852 39.262,-29.191 -17.672,-13.856 -39.934,-20.039 -62.2309,-17.407 z" /></clipPath><linearGradient
       id="linearGradient28"
       spreadMethod="pad"
       gradientTransform="matrix(204.881,0,0,-204.881,89.8266,192.267)"
       gradientUnits="userSpaceOnUse"
       y2="0"
       x2="1"
       y1="0"
       x1="0"><stop
         id="stop24"
         offset="0"
         style="stop-opacity:1;stop-color:#d08273" /><stop
         id="stop26"
         offset="1"
         style="stop-opacity:1;stop-color:#8375c2" /></linearGradient></defs><g
     transform="matrix(1.3333333,0,0,-1.3333333,0,51.266667)"
     id="g10"><g
       transform="scale(0.1)"
       id="g12"><path
         id="path14"
         style="fill:#161617;fill-opacity:1;fill-rule:nonzero;stroke:none"
         d="M 192.266,0 V 0 C 86.082,0 0,86.082 0,192.266 v 0 c 0,106.187 86.082,192.265 192.266,192.265 v 0 c 106.187,0 192.269,-86.078 192.269,-192.265 v 0 C 384.535,86.082 298.453,0 192.266,0" /><g
         id="g16"><g
           clip-path="url(#clipPath22)"
           id="g18"><path
             id="path30"
             style="fill:url(#linearGradient28);fill-opacity:1;fill-rule:nonzero;stroke:none"
             d="m 89.8281,127.902 c 18.6019,-11.925 40.6949,-18.886 64.4299,-18.886 78.043,0 122.133,65.914 119.476,125.039 8.211,5.922 15.336,13.32 20.973,21.758 -7.543,-3.34 -15.644,-5.602 -24.141,-6.614 8.676,5.192 15.34,13.43 18.477,23.25 -8.121,-4.816 -17.117,-8.316 -26.684,-10.203 -7.671,8.172 -18.593,13.274 -30.687,13.274 -27.129,0 -47.07,-25.321 -40.945,-51.614 -34.934,1.75 -65.907,18.489 -86.633,43.922 -11.012,-18.898 -5.7112,-43.613 13.008,-56.125 -6.891,0.219 -13.383,2.117 -19.0473,5.262 -0.4531,-19.477 13.5003,-37.688 33.7153,-41.75 -5.918,-1.61 -12.399,-1.973 -18.973,-0.715 5.336,-16.707 20.863,-28.852 39.262,-29.191 -17.672,-13.856 -39.934,-20.039 -62.2309,-17.407" /></g></g></g></g></svg>