<?xml version="1.0" encoding="UTF-8" standalone="no"?>
<svg
   xmlnsdc="http://purl.org/dc/elements/1.1/"
   xmlnscc="http://creativecommons.org/ns#"
   xmlnsrdf="http://www.w3.org/1999/02/22-rdf-syntax-ns#"
   xmlnssvg="http://www.w3.org/2000/svg"
   xmlns="http://www.w3.org/2000/svg"
   viewBox="0 0 51.266666 51.266666"
   height="51.266666"
   width="51.266666"
   xmlSpace="preserve"
   id="svg2"
   version="1.1"><metadata
     id="metadata8"><rdfRDF><ccWork
         rdfabout=""><dcFormat>image/svg+xml</dcFormat><dcType
           rdfresource="http://purl.org/dc/dcmitype/StillImage" /></ccWork></rdfRDF></metadata><defs
     id="defs6"><clipPath
       id="clipPath22"
       clipPathUnits="userSpaceOnUse"><path
         id="path20"
         d="m 167.363,160.992 v 67.746 l 65.149,-33.996 z m 143.051,79.481 c 0,0 -2.363,16.613 -9.59,23.929 -9.168,9.602 -19.441,9.653 -24.152,10.211 -33.746,2.442 -84.356,2.442 -84.356,2.442 h -0.101 c 0,0 -50.61,0 -84.352,-2.442 -4.715,-0.558 -14.9841,-0.609 -24.156,-10.211 -7.2265,-7.316 -9.5781,-23.929 -9.5781,-23.929 0,0 -2.4141,-19.508 -2.4141,-39.02 V 183.16 c 0,-19.512 2.4141,-39.019 2.4141,-39.019 0,0 2.3516,-16.614 9.5781,-23.934 9.1719,-9.598 21.219,-9.301 26.582,-10.305 19.297,-1.851 81.977,-2.425 81.977,-2.425 0,0 50.66,0.078 84.406,2.515 4.711,0.567 14.984,0.617 24.152,10.215 7.227,7.32 9.59,23.934 9.59,23.934 0,0 2.406,19.507 2.406,39.019 v 18.293 c 0,19.512 -2.406,39.02 -2.406,39.02 z" /></clipPath><linearGradient
       id="linearGradient28"
       spreadMethod="pad"
       gradientTransform="matrix(241.106,0,0,-241.106,71.7132,192.267)"
       gradientUnits="userSpaceOnUse"
       y2="0"
       x2="1"
       y1="0"
       x1="0"><stop
         id="stop24"
         offset="0"
         style="stop-opacity:1;stop-color:#d08273" /><stop
         id="stop26"
         offset="1"
         style="stop-opacity:1;stop-color:#8375c2" /></linearGradient></defs><g
     transform="matrix(1.3333333,0,0,-1.3333333,0,51.266667)"
     id="g10"><g
       transform="scale(0.1)"
       id="g12"><path
         id="path14"
         style="fill:#161617;fill-opacity:1;fill-rule:nonzero;stroke:none"
         d="M 384.531,192.266 C 384.531,86.082 298.453,0 192.266,0 86.082,0 0,86.082 0,192.266 c 0,106.187 86.082,192.265 192.266,192.265 106.187,0 192.265,-86.078 192.265,-192.265" /><g
         id="g16"><g
           clip-path="url(#clipPath22)"
           id="g18"><path
             id="path30"
             style="fill:url(#linearGradient28);fill-opacity:1;fill-rule:nonzero;stroke:none"
             d="m 167.363,160.992 v 67.746 l 65.149,-33.996 z m 143.051,79.481 c 0,0 -2.363,16.613 -9.59,23.929 -9.168,9.602 -19.441,9.653 -24.152,10.211 -33.746,2.442 -84.356,2.442 -84.356,2.442 h -0.101 c 0,0 -50.61,0 -84.352,-2.442 -4.715,-0.558 -14.9841,-0.609 -24.156,-10.211 -7.2265,-7.316 -9.5781,-23.929 -9.5781,-23.929 0,0 -2.4141,-19.508 -2.4141,-39.02 V 183.16 c 0,-19.512 2.4141,-39.019 2.4141,-39.019 0,0 2.3516,-16.614 9.5781,-23.934 9.1719,-9.598 21.219,-9.301 26.582,-10.305 19.297,-1.851 81.977,-2.425 81.977,-2.425 0,0 50.66,0.078 84.406,2.515 4.711,0.567 14.984,0.617 24.152,10.215 7.227,7.32 9.59,23.934 9.59,23.934 0,0 2.406,19.507 2.406,39.019 v 18.293 c 0,19.512 -2.406,39.02 -2.406,39.02" /></g></g></g></g></svg>